<svg width="100%" viewBox="220 140 300 340" xmlns="http://www.w3.org/2000/svg">
  <defs>
    
  </defs>

  <!-- Outer wave body -->
  <path d="M340 160&#10;       C420 160 490 210 510 290&#10;       C525 350 500 400 460 430&#10;       C430 455 390 460 360 450&#10;       C310 435 270 400 260 355&#10;       C245 295 275 235 320 205&#10;       C300 230 285 265 295 300&#10;       C308 345 355 375 400 365&#10;       C440 355 465 315 455 275&#10;       C443 230 400 200 355 198&#10;       Z" fill-rule="evenodd" style="fill:rgb(41, 182, 232);stroke:none;color:rgb(255, 255, 255);stroke-width:1px;stroke-linecap:butt;stroke-linejoin:miter;opacity:1;font-family:&quot;Anthropic Sans&quot;, -apple-system, BlinkMacSystemFont, &quot;Segoe UI&quot;, sans-serif;font-size:16px;font-weight:400;text-anchor:start;dominant-baseline:auto"/>

  <!-- Mid curl -->
  <path d="M355 198&#10;       C385 198 415 215 430 240&#10;       C445 265 440 298 420 315&#10;       C400 332 370 332 350 318&#10;       C325 300 320 268 335 248&#10;       C325 260 322 278 332 293&#10;       C344 310 368 316 386 305&#10;       C404 294 410 270 400 252&#10;       C390 234 370 222 350 222&#10;       Z" style="fill:rgb(14, 143, 199);stroke:none;color:rgb(255, 255, 255);stroke-width:1px;stroke-linecap:butt;stroke-linejoin:miter;opacity:1;font-family:&quot;Anthropic Sans&quot;, -apple-system, BlinkMacSystemFont, &quot;Segoe UI&quot;, sans-serif;font-size:16px;font-weight:400;text-anchor:start;dominant-baseline:auto"/>

  <!-- Inner spiral tip -->
  <path d="M350 222&#10;       C364 222 377 231 382 244&#10;       C387 257 381 272 369 278&#10;       C357 284 343 278 338 266&#10;       C334 256 338 244 347 238&#10;       C342 243 340 251 344 258&#10;       C349 267 361 270 369 264&#10;       C377 258 378 246 372 239&#10;       C366 232 358 227 350 226&#10;       Z" style="fill:rgb(10, 111, 160);stroke:none;color:rgb(255, 255, 255);stroke-width:1px;stroke-linecap:butt;stroke-linejoin:miter;opacity:1;font-family:&quot;Anthropic Sans&quot;, -apple-system, BlinkMacSystemFont, &quot;Segoe UI&quot;, sans-serif;font-size:16px;font-weight:400;text-anchor:start;dominant-baseline:auto"/>

  <!-- Spray lines at crest -->
  <g stroke="#29b6e8" stroke-width="3" stroke-linecap="round" fill="none" opacity="0.7" style="fill:none;stroke:rgb(41, 182, 232);color:rgb(255, 255, 255);stroke-width:3px;stroke-linecap:round;stroke-linejoin:miter;opacity:0.7;font-family:&quot;Anthropic Sans&quot;, -apple-system, BlinkMacSystemFont, &quot;Segoe UI&quot;, sans-serif;font-size:16px;font-weight:400;text-anchor:start;dominant-baseline:auto">
    <path d="M430 210 Q445 195 442 178" style="fill:none;stroke:rgb(41, 182, 232);color:rgb(255, 255, 255);stroke-width:3px;stroke-linecap:round;stroke-linejoin:miter;opacity:1;font-family:&quot;Anthropic Sans&quot;, -apple-system, BlinkMacSystemFont, &quot;Segoe UI&quot;, sans-serif;font-size:16px;font-weight:400;text-anchor:start;dominant-baseline:auto"/>
    <path d="M455 240 Q475 230 478 212" style="fill:none;stroke:rgb(41, 182, 232);color:rgb(255, 255, 255);stroke-width:3px;stroke-linecap:round;stroke-linejoin:miter;opacity:1;font-family:&quot;Anthropic Sans&quot;, -apple-system, BlinkMacSystemFont, &quot;Segoe UI&quot;, sans-serif;font-size:16px;font-weight:400;text-anchor:start;dominant-baseline:auto"/>
    <path d="M408 188 Q418 170 412 155" style="fill:none;stroke:rgb(41, 182, 232);color:rgb(255, 255, 255);stroke-width:3px;stroke-linecap:round;stroke-linejoin:miter;opacity:1;font-family:&quot;Anthropic Sans&quot;, -apple-system, BlinkMacSystemFont, &quot;Segoe UI&quot;, sans-serif;font-size:16px;font-weight:400;text-anchor:start;dominant-baseline:auto"/>
  </g>

</svg>